<svg width="21" height="20" viewBox="0 0 21 20" fill="none" xmlns="http://www.w3.org/2000/svg">
<path d="M7 6.55C7.00106 4.81316 7.69149 3.14775 8.91962 1.91962C10.1478 0.691487 11.8132 0.0010597 13.55 0C17.146 0 20.1 2.819 20.1 6.45C20.0989 8.18684 19.4085 9.85225 18.1804 11.0804C16.9522 12.3085 15.2868 12.9989 13.55 13C13.019 13 12.495 12.924 11.998 12.796C11.9861 13.1191 11.8494 13.4251 11.6167 13.6496C11.384 13.8741 11.0734 13.9997 10.75 14H9V15.75C9 16.44 8.44 17 7.75 17H6V18.25C6 18.7141 5.81563 19.1593 5.48744 19.4874C5.15925 19.8156 4.71413 20 4.25 20H1.75C1.28587 20 0.840752 19.8156 0.512563 19.4874C0.184374 19.1593 0 18.7141 0 18.25V16.078C0 15.348 0.29 14.649 0.806 14.134L7.04 7.898C7.07041 7.86594 7.09265 7.82703 7.10484 7.78456C7.11702 7.74209 7.11879 7.6973 7.11 7.654C7.04138 7.28989 7.00457 6.92049 7 6.55ZM16.3 4.95C16.3 4.61848 16.1683 4.30054 15.9339 4.06612C15.6995 3.8317 15.3815 3.7 15.05 3.7C14.7185 3.7 14.4005 3.8317 14.1661 4.06612C13.9317 4.30054 13.8 4.61848 13.8 4.95C13.8 5.28152 13.9317 5.59946 14.1661 5.83388C14.4005 6.0683 14.7185 6.2 15.05 6.2C15.3815 6.2 15.6995 6.0683 15.9339 5.83388C16.1683 5.59946 16.3 5.28152 16.3 4.95Z" fill="#BCBCBC"/>
</svg>
