<svg id="eQ4IklmYiu21" xmlns="http://www.w3.org/2000/svg" xmlns:xlink="http://www.w3.org/1999/xlink" viewBox="0 0 400.280000 300.890000" shape-rendering="geometricPrecision" text-rendering="geometricPrecision"><g id="eQ4IklmYiu22" transform="matrix(1.75765732214701 0 0 1.75765732214701 -152.11869461035474 -28.06707178055581)"><polygon id="eQ4IklmYiu23" points="170.125000,119.875000 247.375000,163.625000 269.875000,151.125000 192.625000,107.375000" fill="rgb(91,110,128)" stroke="none" stroke-width="1"/><polygon id="eQ4IklmYiu24" points="170.125000,119.875000 192.625000,107.375000 192.625000,17.625000 170.125000,30.875000" fill="rgb(105,125,151)" stroke="none" stroke-width="1"/><polygon id="eQ4IklmYiu25" points="247.375000,163.625000 269.875000,151.125000 269.875000,61.375000 247.375000,74.625000" transform="matrix(1 0 0 1 -0.54750000000001 0)" fill="rgb(105,125,151)" stroke="none" stroke-width="1"/><polygon id="eQ4IklmYiu26" points="170.125000,30.875000 247.375000,74.625000 269.875000,61.375000 192.625000,17.625000" fill="rgb(91,110,128)" stroke="none" stroke-width="1"/><polygon id="eQ4IklmYiu27" points="131.500000,141.750000 208.750000,185.500000 231.250000,173 154,129.250000" transform="matrix(1 0 0 1 -0.54750000000001 0)" fill="rgb(91,110,128)" stroke="none" stroke-width="1"/><polygon id="eQ4IklmYiu28" points="131.500000,141.750000 154,129.250000 154,39.500000 131.500000,52.750000" transform="matrix(1 0 0 1 -0.54750000000001 0)" fill="rgb(105,125,151)" stroke="none" stroke-width="1"/><polygon id="eQ4IklmYiu29" points="208.750000,185.500000 231.250000,173 231.250000,83.250000 208.750000,96.500000" transform="matrix(1 0 0 1 -0.54750000000001 0)" fill="rgb(105,125,151)" stroke="none" stroke-width="1"/><polygon id="eQ4IklmYiu210" points="131.500000,52.750000 208.750000,96.500000 231.250000,83.250000 154,39.500000" transform="matrix(1 0 0 1 -0.54750000000001 0)" fill="rgb(91,110,128)" stroke="none" stroke-width="1"/></g></svg>