<svg width="29" height="21" viewBox="0 0 29 21" fill="none" xmlns="http://www.w3.org/2000/svg">
<path d="M26.125 0.8125H2.875C2.36114 0.8125 1.86833 1.01663 1.50498 1.37998C1.14163 1.74333 0.9375 2.23614 0.9375 2.75V18.25C0.9375 18.7639 1.14163 19.2567 1.50498 19.62C1.86833 19.9834 2.36114 20.1875 2.875 20.1875H26.125C26.6389 20.1875 27.1317 19.9834 27.495 19.62C27.8584 19.2567 28.0625 18.7639 28.0625 18.25V2.75C28.0625 2.23614 27.8584 1.74333 27.495 1.37998C27.1317 1.01663 26.6389 0.8125 26.125 0.8125V0.8125ZM23.9937 2.75L14.5 9.31812L5.00625 2.75H23.9937ZM2.875 18.25V3.63156L13.9478 11.2944C14.11 11.4069 14.3026 11.4672 14.5 11.4672C14.6974 11.4672 14.89 11.4069 15.0522 11.2944L26.125 3.63156V18.25H2.875Z" fill="#BCBCBC"/>
</svg>
